<svg width="512" height="512" viewBox="0 0 512 512" fill="none" xmlns="http://www.w3.org/2000/svg">
    <rect width="512" height="512" rx="120" fill="white"/>
    <rect x="0" y="0" width="512" height="512" rx="120" fill="url(#glassGradient)" style="mix-blend-mode:overlay"/>
    <path d="M120 100H392C414.091 100 432 117.909 432 140V412H120C97.9086 412 80 394.091 80 372V140C80 117.909 97.9086 100 120 100Z" fill="#F3F4F6"/>
    <path d="M120 130H392V380H120C108.954 380 100 371.046 100 360V150C100 138.954 108.954 130 120 130Z" fill="url(#p1)" opacity="0.9"/>
    <path d="M125 125H397V375H125C113.954 375 105 366.046 105 355V145C105 133.954 113.954 125 125 125Z" fill="url(#p2)" opacity="0.8"/>
    <path d="M130 120H402V370H130C118.954 370 110 361.046 110 350V140C110 128.954 118.954 120 130 120Z" fill="url(#p3)" opacity="0.9"/>
    <path d="M0 0H512V256L0 120V0Z" fill="white" fill-opacity="0.1"/>
    <defs>
        <linearGradient id="glassGradient" x1="0" y1="0" x2="512" y2="512" gradientUnits="userSpaceOnUse"><stop stop-color="#E0E7FF"/><stop offset="1" stop-color="#F3E8FF"/></linearGradient>
        <linearGradient id="p1" x1="100" y1="130" x2="392" y2="380" gradientUnits="userSpaceOnUse"><stop stop-color="#3B82F6"/><stop offset="1" stop-color="#8B5CF6"/></linearGradient>
        <linearGradient id="p2" x1="105" y1="125" x2="397" y2="375" gradientUnits="userSpaceOnUse"><stop stop-color="#F59E0B"/><stop offset="1" stop-color="#EF4444"/></linearGradient>
        <linearGradient id="p3" x1="110" y1="120" x2="402" y2="370" gradientUnits="userSpaceOnUse"><stop stop-color="#10B981"/><stop offset="1" stop-color="#3B82F6"/></linearGradient>
    </defs>
</svg>
