<svg width="512" height="512" viewBox="0 0 512 512" fill="none" xmlns="http://www.w3.org/2000/svg">
    <rect width="512" height="512" rx="120" fill="#050505"/>
    
    <rect x="10" y="10" width="492" height="492" rx="110" stroke="url(#goldGrad)" stroke-width="8"/>
    
    <path d="M120 100H392C414.091 100 432 117.909 432 140V412H120C97.9086 412 80 394.091 80 372V140C80 117.909 97.9086 100 120 100Z" fill="#1A1A1A" stroke="#D4AF37" stroke-width="4"/>
    
    <path d="M120 130H392V380H120C108.954 380 100 371.046 100 360V150C100 138.954 108.954 130 120 130Z" fill="#4B0082"/>
    <path d="M125 125H397V375H125C113.954 375 105 366.046 105 355V145C105 133.954 113.954 125 125 125Z" fill="#5B21B6"/>
    
    <circle cx="256" cy="256" r="40" fill="#D4AF37"/>
    
    <defs>
        <linearGradient id="goldGrad" x1="0" y1="0" x2="512" y2="512" gradientUnits="userSpaceOnUse">
            <stop stop-color="#BF953F"/>
            <stop offset="0.5" stop-color="#FCF6BA"/>
            <stop offset="1" stop-color="#AA771C"/>
        </linearGradient>
    </defs>
</svg>
